<svg xmlns="http://www.w3.org/2000/svg" xmlns:xlink="http://www.w3.org/1999/xlink" width="13.75" height="16.5" viewBox="0 0 13.75 16.5">
  <defs>
    <clipPath id="clip-path">
      <rect width="13.75" height="16.5" fill="none"/>
    </clipPath>
  </defs>
  <g id="Repetição_de_grade_1" data-name="Repetição de grade 1" clip-path="url(#clip-path)">
    <g transform="translate(-341 -51)">
      <path id="União_1" data-name="União 1" d="M2266.709,786.125h4.33a2.392,2.392,0,0,1-4.33,0Zm-4.366-.688a.344.344,0,0,1-.294-.521l1.18-1.967a5.848,5.848,0,0,0,.833-3.006v-1.724a4.818,4.818,0,0,1,3.438-4.609v-1.235a1.375,1.375,0,0,1,2.75,0v1.235a4.819,4.819,0,0,1,3.438,4.609v1.724a5.843,5.843,0,0,0,.833,3.007l1.18,1.967a.343.343,0,0,1-.294.52Z" transform="translate(-1921 -720)" fill="#fff"/>
    </g>
  </g>
</svg>
